<mxfile host="app.diagrams.net" agent="Mozilla/5.0 (Windows NT 10.0; Win64; x64) AppleWebKit/537.36 (KHTML, like Gecko) Chrome/130.0.0.0 Safari/537.36" version="24.8.6">
  <diagram name="Trang-1" id="IAOb-yyAYcxcUdQZ8VPT">
    <mxGraphModel dx="1050" dy="557" grid="1" gridSize="10" guides="1" tooltips="1" connect="1" arrows="1" fold="1" page="1" pageScale="1" pageWidth="827" pageHeight="1169" math="0" shadow="0">
      <root>
        <mxCell id="0" />
        <mxCell id="1" parent="0" />
        <mxCell id="5zzL7E44Ld2YuaXYNKBy-1" value="&lt;div&gt;&lt;br&gt;&lt;/div&gt;&lt;div&gt;&lt;br&gt;&lt;/div&gt;&lt;div&gt;&lt;br&gt;&lt;/div&gt;&lt;div&gt;&lt;br&gt;&lt;/div&gt;&lt;div&gt;&lt;span style=&quot;background-color: initial;&quot;&gt;&lt;br&gt;&lt;/span&gt;&lt;/div&gt;&lt;div&gt;&lt;span style=&quot;background-color: initial;&quot;&gt;admin&lt;/span&gt;&lt;/div&gt;&lt;div&gt;&lt;br&gt;&lt;/div&gt;" style="shape=umlLifeline;perimeter=lifelinePerimeter;whiteSpace=wrap;html=1;container=1;dropTarget=0;collapsible=0;recursiveResize=0;outlineConnect=0;portConstraint=eastwest;newEdgeStyle={&quot;curved&quot;:0,&quot;rounded&quot;:0};participant=umlActor;size=40;" vertex="1" parent="1">
          <mxGeometry x="120" y="80" width="20" height="630" as="geometry" />
        </mxCell>
        <mxCell id="5zzL7E44Ld2YuaXYNKBy-2" value=":Client" style="shape=umlLifeline;perimeter=lifelinePerimeter;whiteSpace=wrap;html=1;container=1;dropTarget=0;collapsible=0;recursiveResize=0;outlineConnect=0;portConstraint=eastwest;newEdgeStyle={&quot;curved&quot;:0,&quot;rounded&quot;:0};" vertex="1" parent="1">
          <mxGeometry x="219" y="90" width="100" height="630" as="geometry" />
        </mxCell>
        <mxCell id="5zzL7E44Ld2YuaXYNKBy-3" value="" style="html=1;points=[[0,0,0,0,5],[0,1,0,0,-5],[1,0,0,0,5],[1,1,0,0,-5]];perimeter=orthogonalPerimeter;outlineConnect=0;targetShapes=umlLifeline;portConstraint=eastwest;newEdgeStyle={&quot;curved&quot;:0,&quot;rounded&quot;:0};" vertex="1" parent="5zzL7E44Ld2YuaXYNKBy-2">
          <mxGeometry x="45" y="80" width="10" height="520" as="geometry" />
        </mxCell>
        <mxCell id="5zzL7E44Ld2YuaXYNKBy-4" value=":Api" style="shape=umlLifeline;perimeter=lifelinePerimeter;whiteSpace=wrap;html=1;container=1;dropTarget=0;collapsible=0;recursiveResize=0;outlineConnect=0;portConstraint=eastwest;newEdgeStyle={&quot;curved&quot;:0,&quot;rounded&quot;:0};" vertex="1" parent="1">
          <mxGeometry x="389" y="80" width="100" height="580" as="geometry" />
        </mxCell>
        <mxCell id="5zzL7E44Ld2YuaXYNKBy-5" value=":Server" style="shape=umlLifeline;perimeter=lifelinePerimeter;whiteSpace=wrap;html=1;container=1;dropTarget=0;collapsible=0;recursiveResize=0;outlineConnect=0;portConstraint=eastwest;newEdgeStyle={&quot;curved&quot;:0,&quot;rounded&quot;:0};" vertex="1" parent="1">
          <mxGeometry x="554" y="80" width="100" height="630" as="geometry" />
        </mxCell>
        <mxCell id="5zzL7E44Ld2YuaXYNKBy-6" value="Nhấn nút Sửa phòng" style="html=1;verticalAlign=bottom;endArrow=block;curved=0;rounded=0;" edge="1" parent="1">
          <mxGeometry x="0.1613" y="4" width="80" relative="1" as="geometry">
            <mxPoint x="129" y="174" as="sourcePoint" />
            <mxPoint x="260" y="174" as="targetPoint" />
            <mxPoint as="offset" />
          </mxGeometry>
        </mxCell>
        <mxCell id="5zzL7E44Ld2YuaXYNKBy-7" value="loop kiểm tra form phòng" style="shape=umlFrame;whiteSpace=wrap;html=1;pointerEvents=0;width=100;height=30;" vertex="1" parent="1">
          <mxGeometry x="160" y="200" width="230" height="110" as="geometry" />
        </mxCell>
        <mxCell id="5zzL7E44Ld2YuaXYNKBy-8" value="" style="html=1;points=[[0,0,0,0,5],[0,1,0,0,-5],[1,0,0,0,5],[1,1,0,0,-5]];perimeter=orthogonalPerimeter;outlineConnect=0;targetShapes=umlLifeline;portConstraint=eastwest;newEdgeStyle={&quot;curved&quot;:0,&quot;rounded&quot;:0};" vertex="1" parent="1">
          <mxGeometry x="271" y="270" width="10" height="30" as="geometry" />
        </mxCell>
        <mxCell id="5zzL7E44Ld2YuaXYNKBy-9" value="kiểm tra hợp lệ" style="html=1;align=left;spacingLeft=2;endArrow=block;rounded=0;edgeStyle=orthogonalEdgeStyle;curved=0;rounded=0;" edge="1" parent="1">
          <mxGeometry x="0.0118" relative="1" as="geometry">
            <mxPoint x="275" y="241" as="sourcePoint" />
            <Array as="points">
              <mxPoint x="305" y="271" />
            </Array>
            <mxPoint x="280" y="271" as="targetPoint" />
            <mxPoint as="offset" />
          </mxGeometry>
        </mxCell>
        <mxCell id="5zzL7E44Ld2YuaXYNKBy-10" value="gọi api tạo phòng&amp;nbsp;" style="html=1;verticalAlign=bottom;endArrow=block;curved=0;rounded=0;" edge="1" parent="1">
          <mxGeometry width="80" relative="1" as="geometry">
            <mxPoint x="272.5" y="350" as="sourcePoint" />
            <mxPoint x="434" y="350" as="targetPoint" />
          </mxGeometry>
        </mxCell>
        <mxCell id="5zzL7E44Ld2YuaXYNKBy-11" value="gửi request và data" style="html=1;verticalAlign=bottom;endArrow=block;curved=0;rounded=0;" edge="1" parent="1">
          <mxGeometry width="80" relative="1" as="geometry">
            <mxPoint x="440" y="368" as="sourcePoint" />
            <mxPoint x="601.5" y="368" as="targetPoint" />
          </mxGeometry>
        </mxCell>
        <mxCell id="5zzL7E44Ld2YuaXYNKBy-12" value="trả về kết quả&amp;nbsp;" style="html=1;verticalAlign=bottom;endArrow=open;dashed=1;endSize=8;curved=0;rounded=0;" edge="1" parent="1">
          <mxGeometry relative="1" as="geometry">
            <mxPoint x="601.5" y="435" as="sourcePoint" />
            <mxPoint x="440" y="435" as="targetPoint" />
          </mxGeometry>
        </mxCell>
        <mxCell id="5zzL7E44Ld2YuaXYNKBy-13" value="alt kết quả Sửa phòng" style="shape=umlFrame;whiteSpace=wrap;html=1;pointerEvents=0;width=130;height=20;" vertex="1" parent="1">
          <mxGeometry x="140" y="470" width="320" height="200" as="geometry" />
        </mxCell>
        <mxCell id="5zzL7E44Ld2YuaXYNKBy-14" value="Hiển thị ra màn hình chính" style="html=1;verticalAlign=bottom;endArrow=open;dashed=1;endSize=8;curved=0;rounded=0;" edge="1" parent="1">
          <mxGeometry relative="1" as="geometry">
            <mxPoint x="443" y="520" as="sourcePoint" />
            <mxPoint x="272" y="520" as="targetPoint" />
            <Array as="points" />
          </mxGeometry>
        </mxCell>
        <mxCell id="5zzL7E44Ld2YuaXYNKBy-15" value="Hiển thị ra màn hình thất bại" style="html=1;verticalAlign=bottom;endArrow=open;dashed=1;endSize=8;curved=0;rounded=0;" edge="1" parent="1">
          <mxGeometry relative="1" as="geometry">
            <mxPoint x="441" y="600" as="sourcePoint" />
            <mxPoint x="270" y="600" as="targetPoint" />
            <Array as="points" />
          </mxGeometry>
        </mxCell>
        <mxCell id="5zzL7E44Ld2YuaXYNKBy-16" value="Sửa phòng thành&amp;nbsp;&lt;div&gt;công&lt;/div&gt;" style="text;html=1;align=center;verticalAlign=middle;resizable=0;points=[];autosize=1;strokeColor=none;fillColor=none;" vertex="1" parent="1">
          <mxGeometry x="150" y="503" width="120" height="40" as="geometry" />
        </mxCell>
        <mxCell id="5zzL7E44Ld2YuaXYNKBy-17" value="&amp;nbsp; &amp;nbsp; &amp;nbsp; &amp;nbsp; &amp;nbsp; &amp;nbsp; &amp;nbsp; &amp;nbsp; &amp;nbsp; &amp;nbsp; &amp;nbsp; &amp;nbsp; &amp;nbsp; Thêm phòng thất bại" style="text;html=1;align=center;verticalAlign=middle;resizable=0;points=[];autosize=1;strokeColor=none;fillColor=none;" vertex="1" parent="1">
          <mxGeometry x="55" y="578" width="220" height="30" as="geometry" />
        </mxCell>
        <mxCell id="5zzL7E44Ld2YuaXYNKBy-18" value=":Database" style="shape=umlLifeline;perimeter=lifelinePerimeter;whiteSpace=wrap;html=1;container=1;dropTarget=0;collapsible=0;recursiveResize=0;outlineConnect=0;portConstraint=eastwest;newEdgeStyle={&quot;curved&quot;:0,&quot;rounded&quot;:0};" vertex="1" parent="1">
          <mxGeometry x="700" y="80" width="96" height="630" as="geometry" />
        </mxCell>
        <mxCell id="5zzL7E44Ld2YuaXYNKBy-19" value="cập nhật&lt;div&gt;dữ liệu&lt;/div&gt;" style="html=1;align=left;spacingLeft=2;endArrow=block;rounded=0;edgeStyle=orthogonalEdgeStyle;curved=0;rounded=0;" edge="1" parent="5zzL7E44Ld2YuaXYNKBy-18">
          <mxGeometry relative="1" as="geometry">
            <mxPoint x="56.00000000000003" y="300" as="sourcePoint" />
            <Array as="points">
              <mxPoint x="70" y="300" />
              <mxPoint x="70" y="330" />
            </Array>
            <mxPoint x="56" y="330" as="targetPoint" />
          </mxGeometry>
        </mxCell>
        <mxCell id="5zzL7E44Ld2YuaXYNKBy-20" value="gửi yêu cầu&amp;nbsp;" style="html=1;verticalAlign=bottom;endArrow=block;curved=0;rounded=0;" edge="1" parent="1">
          <mxGeometry width="80" relative="1" as="geometry">
            <mxPoint x="603" y="387" as="sourcePoint" />
            <mxPoint x="747.5" y="386.52" as="targetPoint" />
          </mxGeometry>
        </mxCell>
        <mxCell id="5zzL7E44Ld2YuaXYNKBy-21" value="" style="html=1;points=[[0,0,0,0,5],[0,1,0,0,-5],[1,0,0,0,5],[1,1,0,0,-5]];perimeter=orthogonalPerimeter;outlineConnect=0;targetShapes=umlLifeline;portConstraint=eastwest;newEdgeStyle={&quot;curved&quot;:0,&quot;rounded&quot;:0};" vertex="1" parent="1">
          <mxGeometry x="746" y="374" width="10" height="46" as="geometry" />
        </mxCell>
        <mxCell id="5zzL7E44Ld2YuaXYNKBy-22" value="trả về kết quả" style="html=1;verticalAlign=bottom;endArrow=open;dashed=1;endSize=8;curved=0;rounded=0;" edge="1" parent="1">
          <mxGeometry relative="1" as="geometry">
            <mxPoint x="747.5" y="413" as="sourcePoint" />
            <mxPoint x="604" y="413" as="targetPoint" />
          </mxGeometry>
        </mxCell>
        <mxCell id="5zzL7E44Ld2YuaXYNKBy-23" value="Biểu đồ tuàn tự sửa phòng&lt;div&gt;&lt;br&gt;&lt;/div&gt;" style="shape=umlFrame;whiteSpace=wrap;html=1;pointerEvents=0;width=210;height=30;" vertex="1" parent="1">
          <mxGeometry x="57" y="14" width="770" height="712" as="geometry" />
        </mxCell>
        <mxCell id="5zzL7E44Ld2YuaXYNKBy-24" value="" style="html=1;points=[[0,0,0,0,5],[0,1,0,0,-5],[1,0,0,0,5],[1,1,0,0,-5]];perimeter=orthogonalPerimeter;outlineConnect=0;targetShapes=umlLifeline;portConstraint=eastwest;newEdgeStyle={&quot;curved&quot;:0,&quot;rounded&quot;:0};" vertex="1" parent="1">
          <mxGeometry x="434" y="340" width="10" height="340" as="geometry" />
        </mxCell>
        <mxCell id="5zzL7E44Ld2YuaXYNKBy-25" value="" style="html=1;points=[[0,0,0,0,5],[0,1,0,0,-5],[1,0,0,0,5],[1,1,0,0,-5]];perimeter=orthogonalPerimeter;outlineConnect=0;targetShapes=umlLifeline;portConstraint=eastwest;newEdgeStyle={&quot;curved&quot;:0,&quot;rounded&quot;:0};" vertex="1" parent="1">
          <mxGeometry x="599" y="352" width="10" height="90" as="geometry" />
        </mxCell>
        <mxCell id="5zzL7E44Ld2YuaXYNKBy-28" value="" style="endArrow=none;dashed=1;html=1;dashPattern=1 3;strokeWidth=2;rounded=0;" edge="1" parent="1">
          <mxGeometry width="50" height="50" relative="1" as="geometry">
            <mxPoint x="140" y="560" as="sourcePoint" />
            <mxPoint x="463" y="560" as="targetPoint" />
          </mxGeometry>
        </mxCell>
      </root>
    </mxGraphModel>
  </diagram>
</mxfile>
